<?xml version="1.0" standalone="no"?>
<!DOCTYPE svg PUBLIC "-//W3C//DTD SVG 20010904//EN"
 "http://www.w3.org/TR/2001/REC-SVG-20010904/DTD/svg10.dtd">
<svg version="1.0" xmlns="http://www.w3.org/2000/svg"
 width="1080.000000pt" height="1080.000000pt" viewBox="0 0 1080.000000 1080.000000"
 preserveAspectRatio="xMidYMid meet">

<g transform="translate(0.000000,1080.000000) scale(0.100000,-0.100000)"
fill="#000000" stroke="none">
<path d="M4795 8354 c-16 -8 -33 -18 -37 -22 -9 -9 8 -396 23 -497 6 -44 9
-111 7 -150 l-3 -69 -42 44 c-23 25 -56 63 -73 85 -17 22 -69 81 -114 130 -45
50 -111 124 -146 165 -95 113 -92 111 -145 93 l-45 -15 1 -81 c0 -45 5 -131
10 -192 12 -145 28 -439 23 -444 -4 -5 -91 89 -180 193 -32 38 -97 113 -144
166 -47 53 -99 113 -116 135 l-31 39 -52 -24 c-53 -26 -60 -34 -38 -47 7 -4
67 -70 132 -147 66 -76 164 -188 217 -250 54 -61 122 -139 150 -173 29 -34 58
-62 64 -62 6 -1 32 8 58 20 l47 20 -6 152 c-4 84 -11 206 -17 272 -18 215 -21
275 -10 275 9 0 74 -69 179 -192 150 -176 277 -313 293 -316 10 -2 37 6 59 18
l41 20 -6 133 c-3 72 -10 175 -15 227 -5 52 -14 183 -20 290 -6 107 -12 201
-14 208 -6 16 -14 15 -50 -4z"/>
<path d="M6050 8314 c-6 -14 -10 -33 -10 -43 0 -9 -4 -21 -9 -26 -4 -6 -20
-50 -35 -100 -16 -49 -34 -104 -42 -122 -8 -17 -14 -42 -14 -55 0 -12 -7 -32
-15 -42 -8 -11 -15 -28 -15 -38 0 -9 -6 -32 -14 -50 -8 -18 -24 -67 -36 -108
-12 -41 -27 -84 -33 -95 -6 -11 -16 -44 -23 -73 -12 -52 -12 -53 12 -63 50
-18 72 -12 84 26 14 42 27 45 41 8 16 -42 68 -91 126 -118 43 -21 67 -25 140
-25 76 0 95 4 142 27 60 31 110 86 142 159 18 38 22 68 23 139 0 105 -17 147
-88 219 -82 81 -230 115 -319 73 -21 -10 -40 -17 -43 -15 -2 3 19 73 46 157
28 84 50 156 50 161 0 10 -55 30 -82 30 -11 0 -23 -11 -28 -26z m244 -404 c52
-26 74 -48 97 -94 24 -49 26 -161 4 -190 -8 -11 -15 -27 -15 -35 0 -27 -81
-89 -132 -102 -182 -43 -330 127 -258 296 26 61 52 94 98 122 49 30 150 32
206 3z"/>
<path d="M5336 8145 c-15 -8 -33 -15 -40 -15 -25 0 -120 -96 -142 -144 -32
-68 -34 -218 -5 -282 27 -60 84 -119 144 -148 46 -23 63 -26 164 -26 118 0
164 13 220 63 21 19 21 21 5 43 -20 27 -58 31 -89 9 -62 -44 -216 -37 -280 12
-38 30 -83 99 -83 130 0 21 4 21 253 19 l252 -1 3 62 c2 47 -3 75 -19 113 -27
64 -108 139 -175 163 -61 21 -168 22 -208 2z m212 -103 c46 -33 82 -84 89
-127 l6 -38 -201 5 c-111 2 -205 7 -208 11 -13 13 28 97 59 123 51 43 86 55
157 51 49 -2 74 -8 98 -25z"/>
<path d="M7254 7707 c-6 -7 -138 -137 -294 -289 l-283 -278 165 -165 c140
-139 176 -170 232 -196 61 -29 75 -31 174 -31 97 -1 112 2 157 25 160 85 243
198 253 349 6 101 -22 194 -86 282 -42 57 -289 316 -302 316 -3 -1 -10 -6 -16
-13z m122 -229 c108 -111 128 -139 160 -220 29 -74 30 -107 6 -173 -36 -100
-93 -165 -189 -214 -32 -16 -60 -21 -115 -21 -125 1 -178 35 -362 228 l-50 52
225 219 c123 121 227 220 230 220 3 1 46 -41 95 -91z"/>
<path d="M3341 7252 c-26 -34 -31 -48 -30 -93 0 -30 4 -79 9 -109 13 -76 31
-302 26 -308 -4 -4 -65 39 -336 240 -111 83 -118 85 -146 51 -41 -50 -41 -50
155 -191 115 -83 331 -243 420 -311 18 -14 47 -36 65 -49 l31 -23 28 33 c15
18 27 38 27 44 0 11 -31 40 -98 91 -24 19 -30 32 -41 104 -7 45 -9 85 -4 89
10 8 244 30 325 30 55 0 57 1 87 42 17 23 31 46 31 51 0 6 -89 8 -227 6 l-227
-4 -12 60 c-6 33 -17 107 -23 165 -6 57 -15 108 -20 113 -4 4 -22 -10 -40 -31z"/>
<path d="M7537 6720 c-103 -32 -184 -109 -217 -204 -11 -33 -20 -74 -20 -90 1
-58 36 -161 74 -216 41 -61 63 -81 118 -110 l37 -20 15 22 c24 33 20 63 -10
79 -67 35 -134 151 -134 229 0 47 26 105 63 144 l39 41 25 -50 c13 -27 39 -84
57 -125 19 -41 52 -114 75 -162 23 -48 41 -91 41 -97 0 -6 9 -15 21 -21 29
-16 120 40 166 103 121 164 30 426 -168 481 -73 20 -108 19 -182 -4z m169 -95
c62 -18 116 -72 138 -139 20 -63 20 -75 -3 -128 -18 -41 -73 -108 -90 -108 -4
0 -15 17 -24 38 -17 41 -79 176 -120 263 -33 68 -33 67 -4 79 32 13 47 12 103
-5z"/>
<path d="M2976 6575 c-54 -19 -102 -69 -139 -145 -27 -57 -31 -75 -32 -150 0
-102 21 -156 85 -220 64 -64 136 -93 234 -93 99 -1 151 20 220 90 71 72 96
135 96 240 0 69 -4 92 -21 119 -25 40 -38 42 -76 10 -25 -21 -26 -25 -13 -41
11 -13 15 -43 15 -101 0 -81 -1 -83 -40 -130 -54 -63 -96 -84 -168 -84 -96 0
-181 49 -221 127 -24 47 -21 144 5 196 23 44 32 53 92 93 40 26 44 38 25 79
-13 29 -11 28 -62 10z"/>
<path d="M7981 6090 c-40 -27 -75 -50 -78 -50 -3 0 -42 -24 -86 -53 -95 -62
-202 -131 -269 -173 -51 -31 -54 -39 -37 -97 11 -41 44 -61 129 -77 25 -5 86
-21 135 -35 50 -14 110 -30 135 -35 25 -5 79 -19 120 -31 41 -11 90 -23 108
-26 32 -5 32 -5 32 36 0 30 -5 43 -20 51 -18 9 -212 62 -350 96 -30 7 -82 21
-114 31 l-59 19 94 60 c52 33 121 77 154 98 224 140 215 133 215 170 0 43 -8
66 -24 66 -7 0 -45 -22 -85 -50z"/>
<path d="M2808 5841 c-20 -4 -48 -15 -61 -24 -91 -59 -133 -238 -89 -378 28
-90 49 -106 93 -70 l24 19 -23 54 c-41 100 -22 225 43 276 21 16 41 22 81 22
59 0 65 -7 53 -60 -5 -19 -11 -74 -15 -121 -9 -110 10 -172 67 -223 37 -34 43
-36 107 -36 57 0 74 4 103 25 59 44 78 95 79 211 0 97 -1 103 -30 142 l-30 42
29 0 c35 0 50 17 58 63 5 35 5 35 -38 41 -43 6 -395 27 -408 25 -3 -1 -22 -5
-43 -8z m320 -136 c58 -50 87 -128 70 -192 -6 -25 -24 -61 -41 -79 -37 -43
-91 -47 -134 -10 l-28 24 3 138 c1 75 5 141 8 145 3 5 22 9 43 9 28 0 47 -8
79 -35z"/>
<path d="M7740 5401 c-71 -15 -150 -77 -186 -146 -59 -112 -56 -289 7 -369
l21 -26 31 22 c18 12 33 22 34 23 1 0 -9 25 -24 54 -65 138 18 325 155 347 31
5 40 3 45 -11 4 -9 3 -25 -3 -34 -5 -10 -12 -56 -15 -102 -4 -46 -12 -124 -20
-174 -32 -203 -33 -200 78 -193 172 12 287 138 287 314 0 115 -62 219 -160
269 -51 26 -186 40 -250 26z m212 -122 c45 -23 70 -50 100 -108 56 -106 -50
-281 -170 -281 l-30 0 5 88 c2 48 11 120 19 161 8 40 14 86 14 101 0 29 9 60
16 60 3 0 24 -10 46 -21z"/>
<path d="M3186 5241 c-16 -18 -16 -21 6 -65 l22 -47 -23 -44 c-25 -48 -29 -50
-156 -73 -50 -10 -172 -26 -250 -35 -17 -2 -22 9 -36 81 -9 45 -19 85 -22 88
-7 7 -45 -2 -65 -14 -10 -7 -11 -19 -3 -53 6 -24 11 -61 11 -81 0 -31 -4 -38
-22 -42 -111 -23 -103 -18 -101 -66 1 -24 6 -47 11 -52 5 -5 34 -5 68 1 64 10
73 5 74 -39 1 -41 12 -50 54 -43 l38 6 -5 48 c-6 47 -5 49 21 55 15 3 41 10
57 14 17 5 62 11 100 15 99 9 226 39 259 60 58 38 83 124 61 203 -29 99 -60
126 -99 83z"/>
<path d="M3145 4795 c-16 -8 -38 -20 -47 -28 -24 -19 -51 -104 -43 -136 4 -14
13 -72 21 -129 10 -82 11 -111 1 -140 -11 -34 -15 -37 -53 -40 -38 -3 -45 1
-78 39 -20 24 -41 61 -47 83 -6 23 -15 46 -21 53 -5 7 -8 35 -7 64 3 45 0 54
-18 62 -12 5 -34 6 -49 3 -26 -7 -26 -9 -21 -64 12 -126 47 -214 110 -280 44
-47 78 -62 136 -62 67 0 131 47 144 105 7 35 -1 160 -19 275 -11 73 34 122 93
99 30 -11 45 -28 72 -79 25 -46 50 -175 44 -222 -4 -28 -1 -38 8 -38 8 0 23
-3 35 -6 52 -14 66 46 39 172 -20 99 -47 155 -97 210 -65 71 -134 91 -203 59z"/>
<path d="M7421 4709 c-15 -49 -7 -61 51 -78 24 -6 52 -16 63 -21 21 -9 99 -35
150 -50 47 -14 217 -72 250 -85 17 -7 64 -22 105 -35 41 -12 86 -28 100 -35
24 -12 59 -19 88 -16 16 1 46 71 35 82 -7 7 -342 124 -428 149 -68 20 -347
118 -352 124 -4 3 -16 6 -28 6 -17 0 -25 -9 -34 -41z"/>
<path d="M7394 4435 c-10 -8 -27 -15 -36 -15 -23 0 -130 -107 -150 -150 -8
-19 -21 -51 -27 -71 -14 -44 -14 -146 -1 -154 6 -3 10 -16 10 -29 0 -31 50
-106 91 -137 73 -55 128 -74 214 -73 122 0 201 42 263 139 70 109 81 222 32
320 -17 32 -38 68 -48 78 -21 24 -85 66 -136 89 -49 23 -183 25 -212 3z m173
-102 c69 -32 113 -73 139 -131 30 -68 30 -86 -1 -153 -48 -106 -95 -139 -201
-139 -60 0 -76 4 -115 29 -60 38 -92 77 -113 133 -16 44 -16 51 -1 107 30 106
106 169 207 170 26 1 64 -7 85 -16z"/>
<path d="M6837 4122 c-15 -15 -27 -35 -27 -43 0 -7 44 -63 97 -124 l96 -110
-54 -6 c-72 -8 -116 -25 -166 -66 -137 -110 -162 -280 -63 -426 32 -48 84 -93
137 -121 50 -25 201 -22 255 5 92 47 178 157 178 227 0 41 12 46 40 17 13 -14
27 -25 32 -25 16 0 68 43 68 56 0 12 -35 54 -215 257 -44 50 -107 123 -140
162 -82 98 -198 225 -205 225 -4 0 -18 -13 -33 -28z m248 -393 c47 -28 92 -80
114 -132 22 -51 28 -112 12 -122 -5 -3 -12 -19 -16 -35 -10 -47 -105 -126
-160 -134 -109 -14 -202 39 -248 144 -46 103 -13 207 88 277 51 36 153 37 210
2z"/>
<path d="M3664 4053 c-17 -16 -49 -41 -71 -58 -22 -16 -95 -75 -163 -130 -67
-55 -153 -125 -190 -155 -37 -30 -98 -79 -134 -108 -36 -30 -66 -60 -66 -68 0
-16 40 -74 51 -74 3 0 53 37 109 83 57 45 127 100 156 122 54 42 131 104 262
215 42 36 94 76 114 90 21 14 38 30 38 37 0 16 -49 73 -64 73 -6 0 -25 -12
-42 -27z"/>
<path d="M3734 3712 c-88 -92 -196 -205 -239 -252 -43 -47 -102 -111 -131
-142 -30 -31 -54 -65 -54 -75 0 -11 13 -31 28 -46 l29 -27 63 67 c35 38 154
163 265 278 111 116 218 228 238 251 l36 41 -37 36 -38 37 -160 -168z"/>
<path d="M4012 3618 c-26 -46 -69 -119 -96 -163 -26 -44 -52 -89 -58 -100 -24
-43 -56 -96 -85 -142 -13 -18 -23 -38 -23 -43 0 -9 72 -53 86 -53 5 1 20 21
34 46 68 123 162 276 178 289 38 32 95 58 128 58 35 0 94 -25 146 -62 18 -12
33 -37 43 -71 14 -47 14 -56 -1 -100 -9 -28 -28 -68 -43 -91 -14 -22 -31 -50
-38 -61 -6 -11 -32 -54 -57 -96 -25 -42 -46 -85 -46 -96 0 -18 48 -63 68 -63
8 0 172 272 218 360 11 23 18 58 18 100 1 59 -2 70 -36 120 -22 33 -58 69 -90
90 -50 33 -59 35 -150 38 l-97 4 19 39 20 38 -42 21 c-23 11 -43 20 -44 20 -2
0 -25 -37 -52 -82z"/>
<path d="M6285 3454 c-113 -43 -185 -94 -215 -154 -26 -52 -26 -53 16 -73 35
-17 54 -15 54 4 0 27 58 82 115 109 105 50 208 37 274 -34 30 -32 23 -51 -26
-66 -21 -7 -65 -25 -98 -41 -56 -25 -81 -37 -190 -84 -90 -39 -125 -57 -125
-66 0 -42 99 -157 165 -192 32 -17 57 -21 125 -21 73 0 92 4 140 28 94 48 141
103 167 196 16 60 16 98 -1 162 -20 75 -38 106 -93 160 -83 81 -208 110 -308
72z m311 -299 c8 -44 -10 -120 -37 -153 -72 -93 -229 -105 -311 -25 -21 21
-38 41 -38 45 0 8 60 38 200 97 41 18 89 38 105 46 36 15 58 23 67 24 4 1 10
-15 14 -34z"/>
<path d="M5821 3303 c-23 -5 -23 -7 -17 -76 4 -40 14 -96 22 -126 8 -29 16
-95 17 -145 2 -85 0 -95 -25 -134 -20 -30 -44 -49 -88 -69 l-61 -28 3 -45 c3
-42 5 -45 28 -41 62 8 170 87 170 124 0 20 17 -6 30 -46 10 -33 15 -38 34 -32
11 4 31 9 44 12 26 6 27 21 8 106 -15 68 -33 166 -47 267 -5 36 -17 103 -27
150 -19 92 -24 96 -91 83z"/>
<path d="M5075 3271 c-13 -12 -33 -69 -39 -112 -4 -24 -13 -66 -21 -94 -8 -27
-17 -63 -20 -79 -6 -28 -7 -28 -58 -22 -29 4 -72 13 -97 21 -25 7 -70 18 -100
24 -30 6 -77 16 -104 22 -56 12 -64 7 -73 -44 -5 -34 -3 -36 23 -42 16 -3 49
-10 74 -17 52 -13 150 -34 235 -52 60 -12 60 -12 59 -47 -1 -42 -21 -137 -42
-207 -16 -52 -17 -53 -47 -47 -33 8 -130 28 -215 45 -30 7 -75 18 -100 25 -25
8 -60 15 -79 17 -32 3 -35 0 -43 -31 -5 -18 -7 -39 -5 -45 3 -6 51 -22 108
-34 57 -13 126 -29 153 -37 26 -8 59 -15 71 -15 13 0 36 -5 52 -11 15 -6 61
-16 101 -23 86 -16 80 -21 106 99 22 101 43 194 61 265 8 30 24 100 36 155 11
55 27 123 34 150 7 28 16 67 20 87 5 35 4 38 -22 43 -56 12 -62 13 -68 6z"/>
</g>
</svg>
