<?xml version="1.0" standalone="no"?>
<!DOCTYPE svg PUBLIC "-//W3C//DTD SVG 20010904//EN"
 "http://www.w3.org/TR/2001/REC-SVG-20010904/DTD/svg10.dtd">
<svg version="1.0" xmlns="http://www.w3.org/2000/svg"
 width="500.000000pt" height="500.000000pt" viewBox="0 0 500.000000 500.000000"
 preserveAspectRatio="xMidYMid meet">

<g transform="translate(0.000000,500.000000) scale(0.100000,-0.100000)"
fill="#000000" stroke="none">
<path d="M2112 4350 c-25 -11 -25 13 -1 -308 6 -79 9 -146 7 -147 -2 -2 -47
46 -100 108 -190 220 -190 220 -226 212 -21 -4 -32 -13 -32 -23 0 -9 7 -109
14 -222 8 -113 12 -207 11 -209 -6 -5 -32 23 -169 182 -70 81 -129 147 -132
147 -3 0 -19 -7 -35 -16 l-31 -15 24 -23 c28 -27 38 -39 201 -228 70 -81 132
-150 136 -153 5 -2 23 0 40 6 37 13 36 -1 20 258 -6 101 -9 185 -6 187 2 3 66
-66 142 -153 76 -87 142 -159 146 -161 16 -6 69 29 69 46 0 23 -29 403 -36
470 -6 55 -6 56 -42 42z"/>
<path d="M2846 4143 c-38 -115 -77 -232 -87 -261 l-19 -53 26 -9 c36 -14 39
-13 50 17 l9 28 21 -36 c28 -46 94 -79 160 -79 116 0 199 94 192 217 -3 51 -9
69 -34 100 -46 56 -108 86 -169 80 -27 -2 -58 -8 -67 -12 -15 -6 -13 6 12 81
33 98 37 124 16 124 -8 0 -20 2 -28 5 -10 4 -32 -49 -82 -202z m225 -76 c61
-41 77 -114 40 -185 -64 -124 -251 -77 -251 63 0 46 35 111 71 131 38 21 101
17 140 -9z"/>
<path d="M2445 4218 c-72 -25 -115 -97 -115 -192 0 -95 57 -165 152 -186 69
-16 155 0 187 34 21 22 21 23 3 39 -17 16 -21 15 -57 -3 -44 -22 -73 -25 -127
-10 -40 12 -88 61 -88 91 0 18 9 19 161 19 l161 0 -7 47 c-4 26 -13 59 -20 73
-18 34 -64 77 -98 89 -35 14 -112 13 -152 -1z m178 -90 c15 -18 27 -40 27 -50
0 -16 -12 -18 -125 -18 -138 0 -142 3 -108 61 39 66 153 70 206 7z"/>
<path d="M3482 3777 l-182 -182 97 -101 c116 -119 164 -146 256 -147 35 0 78
7 100 16 55 24 134 109 148 160 14 54 7 153 -16 196 -15 30 -198 233 -214 238
-3 1 -88 -80 -189 -180z m252 29 c86 -86 111 -129 111 -196 0 -45 -6 -65 -28
-98 -59 -90 -163 -125 -247 -82 -46 24 -170 137 -170 155 0 12 263 275 274
275 4 0 31 -24 60 -54z"/>
<path d="M1212 3664 l-23 -35 16 -141 c8 -77 14 -143 12 -145 -3 -2 -23 11
-45 29 -22 18 -57 44 -77 58 -19 14 -63 46 -98 73 l-62 47 -24 -27 -23 -27 20
-15 c12 -9 36 -26 54 -39 45 -31 306 -224 342 -253 l28 -22 19 24 c10 13 19
27 19 30 0 3 -18 18 -39 35 -43 31 -51 48 -51 106 l0 36 73 6 c39 4 94 7 120
9 41 2 51 6 67 32 l19 30 -144 -3 -143 -4 -8 48 c-3 27 -12 79 -18 116 l-11
67 -23 -35z"/>
<path d="M3820 3329 c-74 -30 -129 -106 -130 -180 0 -58 30 -129 71 -169 51
-49 75 -56 84 -22 5 20 0 30 -29 53 -69 58 -83 157 -29 215 l27 29 27 -60 c82
-180 109 -235 116 -235 19 0 73 41 99 75 68 89 29 235 -78 291 -31 16 -121 18
-158 3z m172 -89 c34 -36 38 -47 38 -90 0 -41 -5 -56 -29 -82 -16 -18 -31 -31
-33 -28 -4 5 -97 205 -105 228 -4 8 8 12 42 12 43 0 52 -4 87 -40z"/>
<path d="M1000 3252 c-36 -12 -89 -65 -105 -104 -39 -97 -13 -199 66 -253 33
-24 54 -30 108 -33 59 -3 71 0 112 26 65 42 103 120 97 198 -3 33 -11 62 -21
72 -16 15 -18 15 -37 -4 -17 -17 -18 -24 -9 -50 26 -67 -20 -155 -90 -174 -61
-16 -129 11 -161 63 -38 62 -14 162 45 189 18 8 25 19 25 39 0 31 -8 39 -30
31z"/>
<path d="M4068 2912 c-48 -31 -126 -81 -173 -111 -83 -52 -86 -55 -79 -85 3
-17 9 -34 13 -38 3 -3 44 -16 91 -27 47 -12 137 -34 200 -51 63 -16 115 -28
117 -27 1 2 -1 16 -5 33 -7 26 -15 31 -73 46 -184 47 -250 65 -255 71 -3 3 14
18 38 34 48 31 46 29 158 98 75 45 81 52 78 79 -2 16 -7 31 -13 33 -5 1 -49
-23 -97 -55z"/>
<path d="M853 2774 c-47 -24 -65 -59 -71 -135 -5 -76 2 -127 21 -154 11 -15
17 -16 36 -5 16 8 20 17 16 28 -17 39 -23 101 -15 138 11 47 41 74 84 74 l32
0 -4 -95 c-5 -109 6 -148 49 -170 59 -31 131 -7 155 50 21 50 18 133 -6 173
l-20 32 24 0 c19 0 25 6 28 29 4 28 2 30 -31 35 -20 3 -88 8 -151 11 -95 5
-121 3 -147 -11z m215 -64 c41 0 69 -132 36 -178 -18 -26 -60 -29 -90 -8 -17
13 -19 25 -16 97 3 94 6 103 36 95 11 -3 27 -6 34 -6z"/>
<path d="M3935 2502 c-76 -36 -115 -105 -115 -205 0 -47 19 -109 37 -120 6 -4
19 0 31 9 19 13 20 16 6 42 -18 36 -18 115 1 153 28 54 115 91 115 49 0 -19
-25 -218 -35 -272 -4 -28 -4 -28 51 -28 71 0 126 28 161 82 24 36 28 52 28
113 0 63 -3 76 -27 107 -60 79 -170 109 -253 70z m204 -108 c26 -33 28 -104 5
-144 -17 -28 -71 -60 -100 -60 -17 0 -17 3 8 182 l10 77 28 -14 c16 -8 38 -27
49 -41z"/>
<path d="M1118 2410 c-15 -9 -15 -14 -4 -43 14 -32 8 -68 -13 -82 -14 -8 -242
-47 -248 -42 -2 2 -6 28 -10 56 -6 49 -8 52 -32 49 -25 -3 -26 -5 -22 -57 3
-59 -5 -71 -53 -71 -24 0 -28 -3 -22 -22 3 -13 6 -29 6 -35 0 -9 13 -11 44 -7
43 6 45 6 48 -22 2 -24 8 -30 32 -32 28 -3 29 -2 23 32 -6 40 -18 34 141 61
51 9 103 20 117 25 47 18 71 113 42 169 -14 29 -26 34 -49 21z"/>
<path d="M1078 2124 c-36 -19 -40 -40 -36 -171 l3 -108 -31 -3 c-25 -2 -36 3
-51 25 -26 37 -43 88 -43 129 0 31 -2 34 -31 34 l-32 0 7 -56 c18 -152 111
-238 206 -189 44 23 54 67 36 161 -17 91 -9 124 28 124 50 0 86 -66 86 -160 0
-60 0 -60 30 -60 38 0 45 26 31 103 -27 145 -115 219 -203 171z"/>
<path d="M3761 2070 c-5 -16 -9 -30 -8 -30 1 0 81 -27 177 -61 96 -33 214 -73
262 -88 l86 -28 6 30 c7 37 4 39 -94 71 -41 13 -149 49 -238 80 -90 31 -167
56 -172 56 -4 0 -13 -13 -19 -30z"/>
<path d="M3785 1915 c-5 -2 -22 -6 -37 -9 -58 -13 -126 -95 -142 -173 -24
-107 83 -223 205 -223 75 0 125 31 167 100 60 101 34 219 -61 274 -39 23 -110
39 -132 31z m93 -85 c99 -60 93 -193 -12 -244 -37 -18 -41 -18 -91 -2 -94 29
-133 124 -84 202 11 19 33 41 47 49 39 20 101 18 140 -5z"/>
<path d="M3387 1703 c-14 -17 -11 -24 49 -93 l64 -75 -44 -5 c-62 -8 -113 -46
-153 -114 -20 -34 -16 -136 6 -171 43 -69 113 -114 179 -115 89 0 192 88 192
165 0 30 15 33 30 5 l11 -21 29 21 30 21 -112 127 c-203 232 -240 272 -253
272 -6 0 -19 -8 -28 -17z m157 -237 c46 -19 86 -80 86 -131 0 -99 -90 -158
-188 -124 -40 14 -92 90 -92 134 0 42 37 96 80 117 42 22 70 22 114 4z"/>
<path d="M1354 1618 c-49 -40 -101 -82 -115 -93 -70 -52 -219 -177 -219 -183
0 -4 9 -18 20 -32 l19 -25 33 31 c18 17 92 77 163 134 169 134 225 182 225
189 0 3 -9 17 -19 30 l-18 23 -89 -74z"/>
<path d="M1367 1355 l-186 -195 22 -25 22 -25 90 93 c293 302 298 308 279 328
-9 10 -23 19 -29 19 -7 0 -96 -88 -198 -195z"/>
<path d="M1615 1363 c-28 -47 -57 -97 -65 -112 -8 -15 -30 -50 -48 -77 -17
-28 -32 -55 -32 -61 0 -8 41 -33 54 -33 4 0 66 100 66 106 0 2 16 28 36 58 53
81 111 97 184 51 65 -41 63 -92 -8 -210 -57 -96 -72 -122 -72 -128 0 -4 12
-13 27 -21 26 -13 28 -13 55 31 15 24 28 46 28 49 0 3 13 24 28 47 42 62 66
130 59 172 -13 78 -90 137 -179 137 -52 0 -53 1 -38 28 9 16 6 22 -18 34 l-28
14 -49 -85z"/>
<path d="M3036 1288 c-46 -12 -126 -86 -126 -115 0 -13 8 -23 22 -26 12 -4 23
-5 23 -4 24 52 91 96 146 97 64 0 146 -61 102 -76 -10 -4 -52 -21 -93 -39 -41
-18 -99 -43 -127 -55 -29 -12 -53 -28 -53 -35 0 -19 54 -89 86 -110 21 -15 46
-20 96 -20 58 0 72 4 110 30 83 59 110 154 69 247 -43 99 -135 137 -255 106z
m214 -201 c0 -34 -33 -89 -64 -108 -46 -28 -107 -25 -146 7 -17 15 -29 31 -28
36 2 6 53 31 113 57 111 48 125 49 125 8z"/>
<path d="M2785 1202 c-43 -7 -43 -7 -24 -104 26 -131 25 -170 -6 -207 -14 -16
-42 -35 -61 -41 -32 -11 -35 -15 -29 -39 4 -14 8 -28 10 -29 10 -10 77 23 99
48 25 30 36 30 36 -2 0 -13 8 -18 29 -18 17 0 32 3 34 8 3 4 -3 50 -13 102 -9
52 -23 131 -29 174 -16 100 -21 112 -46 108z"/>
<path d="M2285 1168 c-2 -7 -11 -48 -21 -90 -10 -43 -21 -82 -24 -88 -5 -8
-46 -2 -131 18 -111 26 -125 27 -131 13 -13 -31 -9 -51 12 -51 11 0 68 -12
125 -26 79 -20 105 -30 105 -43 0 -36 -34 -161 -45 -161 -6 0 -45 9 -86 19
-66 17 -158 35 -183 36 -5 0 -13 -12 -17 -27 -7 -26 -5 -27 49 -39 32 -6 110
-25 174 -40 64 -16 119 -29 122 -29 7 0 18 42 62 235 66 293 63 273 40 279
-33 9 -46 7 -51 -6z"/>
</g>
</svg>
