<?xml version="1.0" standalone="no"?>
<!DOCTYPE svg PUBLIC "-//W3C//DTD SVG 20010904//EN"
 "http://www.w3.org/TR/2001/REC-SVG-20010904/DTD/svg10.dtd">
<svg version="1.0" xmlns="http://www.w3.org/2000/svg"
 width="896.000000pt" height="1088.000000pt" viewBox="0 0 896.000000 1088.000000"
 preserveAspectRatio="xMidYMid meet">

<g transform="translate(0.000000,1088.000000) scale(0.100000,-0.100000)"
fill="#000000" stroke="none">
<path d="M1297 9926 c4 -5 1 -6 -6 -2 -17 11 -53 -3 -44 -17 5 -9 3 -9 -8 0
-11 9 -18 8 -31 -1 -10 -7 -15 -15 -13 -18 3 -3 -6 -4 -20 -2 -23 2 -24 0 -13
-13 11 -14 11 -15 -8 -5 -11 6 -26 7 -33 3 -7 -5 -9 -11 -5 -13 5 -3 3 -3 -4
-1 -15 3 -105 -58 -167 -115 -22 -20 -47 -38 -55 -40 -8 -2 -19 -9 -23 -15 -6
-8 -7 -4 -4 9 4 21 4 21 -24 5 -15 -8 -30 -25 -33 -35 -3 -11 -8 -17 -12 -13
-3 3 -14 -3 -23 -14 -15 -19 -71 -34 -71 -19 0 4 -16 7 -35 7 -33 0 -34 -1
-18 -19 9 -10 11 -18 5 -18 -6 0 -9 -6 -6 -14 3 -8 -4 -16 -17 -19 -18 -5 -20
-9 -10 -21 10 -12 8 -16 -9 -21 -11 -3 -18 -10 -16 -14 3 -4 -7 -8 -22 -9 -15
-1 -32 -9 -38 -17 -6 -8 -14 -15 -17 -15 -3 0 -27 -20 -53 -45 -26 -24 -50
-43 -52 -41 -2 3 -12 -4 -23 -15 -11 -11 -24 -17 -29 -14 -12 8 -42 -38 -85
-130 -60 -131 -62 -137 -84 -227 -18 -76 -21 -117 -20 -310 0 -196 3 -236 23
-328 13 -58 36 -136 50 -173 36 -93 96 -390 83 -404 -4 -3 -8 2 -9 13 -2 33
-3 39 -10 49 -3 6 -14 39 -24 74 l-17 64 -71 -6 c-40 -3 -97 -16 -131 -29
l-60 -24 -3 -87 c-1 -51 2 -96 9 -108 8 -15 8 -19 0 -15 -8 5 -11 -1047 -11
-3848 l0 -3856 46 0 c33 0 51 5 62 19 10 11 57 34 107 52 50 17 106 40 125 50
19 11 50 22 69 25 19 4 136 43 260 87 124 43 246 85 271 92 45 13 294 100 445
155 44 16 106 37 138 45 31 9 84 27 117 41 33 13 103 35 157 49 54 14 109 34
123 44 14 10 62 23 110 31 47 7 137 29 201 50 64 21 131 41 150 45 42 8 128
35 289 91 69 23 168 50 220 59 111 19 180 36 385 95 297 85 353 102 525 155
96 30 189 58 205 61 30 7 161 65 336 148 146 69 139 50 139 357 0 196 -3 258
-12 257 -7 -2 -25 20 -40 49 -19 34 -42 59 -71 76 -52 31 -168 154 -194 205
-10 20 -29 48 -42 62 -21 23 -73 106 -107 170 -18 35 -55 158 -61 200 -2 19
-10 62 -18 95 -83 364 -91 412 -105 628 -5 82 -14 165 -19 185 -51 195 -91
398 -103 517 -5 50 -11 106 -13 125 -2 19 -4 41 -4 48 -1 7 -10 20 -22 30 -33
27 -50 68 -85 202 -37 141 -73 250 -91 271 -6 8 -16 33 -22 57 -7 23 -15 42
-19 42 -4 0 -15 12 -24 28 -9 15 -29 41 -45 58 -56 62 -63 77 -63 129 0 53 12
79 145 295 64 104 78 130 68 130 -3 0 -17 -10 -30 -22 -13 -12 -23 -16 -23 -9
0 6 7 14 15 17 29 11 14 31 -40 53 -30 13 -55 29 -55 36 0 7 -18 14 -45 18
-36 4 -53 13 -82 42 l-36 37 18 61 c10 34 27 79 37 99 25 51 23 65 -12 72 -46
9 -235 106 -351 181 -57 37 -120 77 -139 89 -19 13 -60 39 -92 59 l-56 36 2
76 c1 42 -1 78 -6 81 -5 3 -23 -10 -42 -29 -37 -39 -83 -63 -136 -73 -60 -11
-154 -6 -206 11 -53 18 -307 153 -312 167 -2 4 -8 8 -13 8 -12 0 -127 79 -188
129 -24 20 -52 41 -62 46 -9 6 -33 25 -53 43 -19 17 -38 32 -41 32 -8 0 -91
65 -120 94 -14 14 -29 26 -33 26 -10 0 -202 190 -232 229 -14 18 -24 37 -22
42 1 5 -4 8 -10 7 -7 -2 -12 3 -10 10 1 6 -2 12 -7 12 -16 0 -29 54 -35 139
-3 46 -7 86 -10 88 -3 3 -17 -4 -32 -16 -37 -29 -69 -26 -133 10 -95 55 -269
243 -308 334 -32 75 -47 200 -40 339 6 134 21 188 67 246 84 107 208 107 302
1 19 -20 34 -29 45 -25 14 5 15 4 4 -4 -11 -8 -8 -13 15 -28 183 -112 214
-164 229 -389 8 -131 25 -215 46 -236 14 -14 34 -19 78 -19 l60 0 10 53 c6 28
15 81 21 117 6 36 15 83 20 105 14 58 13 80 -3 67 -7 -6 -18 -8 -24 -4 -15 9
-23 66 -12 83 5 8 9 10 9 4 1 -5 9 6 18 25 9 19 24 35 32 35 8 1 27 7 42 14
29 15 30 14 243 -64 217 -80 271 -97 325 -98 30 -1 61 -7 68 -14 7 -7 24 -13
37 -13 13 0 27 -4 30 -10 3 -5 19 -13 34 -17 l28 -8 -18 -74 c-17 -70 -17 -97
0 -87 4 3 15 -18 24 -45 14 -39 26 -53 57 -69 60 -31 185 -70 227 -71 28 -1
31 -3 13 -6 -35 -7 -122 14 -208 49 -65 27 -75 35 -97 77 -18 34 -24 40 -25
24 -1 -84 249 -203 363 -172 30 8 37 13 26 20 -11 7 -10 9 6 9 25 1 42 14 84
68 33 43 51 68 117 164 38 56 40 55 82 -67 44 -129 61 -167 72 -160 5 3 7 -1
4 -9 -8 -22 37 -119 49 -107 6 6 38 11 72 11 60 0 77 7 104 43 12 15 12 17 -3
11 -15 -6 -14 -2 2 37 11 24 27 71 36 104 10 33 26 78 36 100 27 57 58 165 50
170 -4 2 -20 7 -37 9 -16 3 -54 17 -84 30 -30 13 -62 26 -71 29 -12 4 -18 17
-18 37 0 38 -39 80 -73 80 -14 0 -55 -15 -93 -34 -37 -19 -72 -32 -76 -30 -4
3 -8 0 -8 -5 0 -6 -11 -10 -25 -9 -14 1 -25 6 -25 10 0 4 -7 8 -15 8 -22 0
-18 17 6 30 17 9 19 17 13 43 -8 39 -24 68 -46 85 -9 7 -23 18 -30 25 -39 39
-180 83 -374 117 -61 10 -72 9 -129 -15 -16 -7 -37 -15 -45 -18 -12 -4 -11 -6
3 -6 10 -1 16 -5 13 -9 -8 -13 79 -51 153 -67 91 -19 118 -31 126 -54 3 -11
14 -22 23 -24 13 -4 13 -5 -4 -6 -19 -1 -132 16 -479 72 -82 14 -230 37 -327
52 -98 15 -178 30 -178 34 0 3 16 29 36 58 23 33 60 68 98 93 101 66 108 71
102 87 -3 8 1 24 9 36 11 16 12 24 3 36 -7 9 -8 13 -4 9 5 -5 14 2 20 14 16
32 39 33 121 10 38 -12 109 -30 156 -41 108 -26 142 -38 134 -50 -3 -6 1 -13
9 -18 8 -4 15 -12 14 -18 0 -24 183 -70 322 -79 47 -4 98 -9 113 -12 27 -6 27
-7 12 -24 -15 -16 -14 -18 7 -23 48 -10 227 13 251 34 14 11 25 77 15 87 -6 6
4 22 25 44 28 29 44 37 92 43 67 8 85 14 85 26 0 5 18 26 41 46 38 34 79 101
79 129 0 7 16 43 36 79 62 118 55 210 -22 289 -30 31 -120 86 -140 86 -4 0 19
-24 50 -54 83 -80 120 -170 99 -244 -9 -34 -23 -8 -23 43 0 42 -27 104 -63
143 -28 30 -157 94 -197 97 -33 2 -57 28 -63 65 -3 17 -11 23 -33 25 -59 5
-67 10 -128 71 -23 23 -49 44 -58 47 -22 8 -33 -10 -18 -28 7 -9 8 -15 1 -20
-15 -8 -81 5 -81 17 0 5 -4 6 -10 3 -5 -3 -10 -1 -10 6 0 7 -2 10 -6 7 -3 -3
-22 -1 -42 4 -119 30 -192 45 -197 40 -3 -3 -5 1 -5 9 0 13 -66 49 -91 49 -7
0 -41 11 -78 24 -36 13 -85 27 -108 31 -24 4 -43 10 -43 15 0 4 -23 10 -51 14
-37 5 -49 11 -46 20 4 10 -1 12 -16 9 -18 -4 -19 -3 -7 6 12 9 10 11 -10 11
-20 0 -22 2 -10 10 11 7 7 10 -17 10 -18 0 -36 6 -40 13 -4 7 -15 13 -23 13
-8 0 -40 4 -70 9 -54 9 -54 9 -20 16 31 6 -95 13 -195 10 l-30 0 33 10 c17 5
32 11 32 13 0 2 -47 4 -105 3 -90 -1 -107 2 -126 19 -13 10 -19 13 -14 5 6
-10 4 -12 -5 -6 -8 5 -37 7 -64 6 -61 -3 -57 3 15 29 l54 19 -47 -2 c-25 -1
-44 -6 -41 -11z m1107 -345 c4 -5 -3 -7 -14 -4 -23 6 -26 13 -6 13 8 0 17 -4
20 -9z m-371 -1287 c20 -4 37 -11 37 -16 0 -11 -101 1 -114 13 -12 11 22 12
77 3z m554 -70 c-3 -3 -12 -4 -19 -1 -8 3 -5 6 6 6 11 1 17 -2 13 -5z m-1152
-120 c3 -27 2 -43 -1 -36 -3 6 -10 10 -14 7 -5 -3 -7 4 -5 15 2 11 0 20 -5 20
-5 0 -4 11 2 25 15 32 18 28 23 -31z m1366 15 c49 -25 63 -43 56 -79 -11 -52
-121 -262 -159 -303 -35 -37 -39 -39 -80 -32 -96 15 -199 53 -235 87 -28 26
-30 79 -7 137 l16 40 23 -22 c12 -12 21 -25 19 -28 -2 -3 15 -16 36 -28 22
-12 40 -19 40 -14 0 4 4 2 9 -5 6 -11 16 -7 45 18 32 29 36 37 36 80 l0 49 48
6 c76 11 82 14 83 46 1 16 2 35 3 42 1 6 -3 18 -8 26 -9 11 -6 12 14 6 14 -4
41 -16 61 -26z m-1406 -18 c3 -5 2 -12 -3 -15 -5 -3 -9 1 -9 9 0 17 3 19 12 6z
m883 -18 l37 -17 -32 -4 c-40 -4 -83 16 -62 29 18 11 14 12 57 -8z m225 -5 c3
-11 -1 -22 -10 -25 -10 -4 -13 -13 -8 -30 5 -23 4 -24 -30 -20 -20 3 -38 7
-40 9 -3 2 1 20 7 41 10 34 21 41 65 43 6 0 14 -8 16 -18z m514 16 c-3 -3 -12
-4 -19 -1 -8 3 -5 6 6 6 11 1 17 -2 13 -5z m-127 -70 c0 -4 -25 -53 -56 -110
-54 -103 -77 -135 -50 -71 48 114 106 213 106 181z m355 -64 c4 -6 -7 -10 -27
-9 -27 0 -30 2 -13 9 27 12 33 12 40 0z m3 -79 c11 -30 6 -92 -8 -101 -4 -3
-6 -13 -4 -22 1 -10 -11 -27 -28 -39 -19 -14 -28 -28 -25 -39 2 -9 -1 -17 -8
-17 -7 0 -10 8 -8 18 3 9 0 20 -6 23 -6 4 -9 1 -5 -7 3 -8 -1 -14 -10 -14 -8
0 -13 4 -10 8 2 4 0 11 -6 14 -6 4 -9 2 -8 -3 2 -6 -1 -10 -7 -10 -5 0 -9 4
-7 10 1 5 -2 7 -7 4 -5 -3 -7 -15 -4 -25 3 -10 0 -22 -6 -25 -7 -4 -9 -1 -5 8
3 8 0 25 -7 38 -7 13 -12 27 -11 31 1 5 -2 6 -8 2 -6 -3 -8 -10 -6 -14 3 -4 1
-13 -5 -21 -6 -10 -9 9 -9 55 0 95 7 117 33 109 16 -5 19 -3 14 10 -5 13 1 16
31 17 30 0 33 2 17 9 -14 6 -2 9 42 9 59 1 61 0 71 -28z m-3092 -144 c21 6 48
14 58 19 12 5 17 4 13 -3 -4 -6 -27 -16 -52 -23 -25 -7 -45 -15 -45 -18 0 -3
8 -15 17 -26 9 -12 -11 8 -46 44 -35 36 -67 74 -73 85 -6 11 12 -4 39 -34 l49
-54 40 10z m125 43 c-13 -11 -28 -20 -35 -20 -6 0 3 9 19 19 39 25 46 25 16 1z
m68 -70 c0 -9 -4 -8 -9 5 -5 11 -9 27 -9 35 0 9 4 8 9 -5 5 -11 9 -27 9 -35z
m2724 -15 c4 -8 3 -16 -1 -19 -4 -3 -9 4 -9 15 -2 23 3 25 10 4z m140 8 c-7
-2 -13 -9 -13 -14 0 -6 5 -7 12 -3 7 5 8 3 3 -5 -5 -9 -11 -9 -17 -3 -12 12
-2 32 15 31 9 0 9 -2 0 -6z m-2856 -35 c-3 -8 -6 -5 -6 6 -1 11 2 17 5 13 3
-3 4 -12 1 -19z m-136 -75 c13 -16 12 -17 -3 -4 -17 13 -22 21 -14 21 2 0 10
-8 17 -17z m257 -163 c3 -3 2 4 -1 15 -7 20 -7 20 8 1 8 -11 15 -17 15 -13 0
16 189 -124 274 -202 l38 -36 -19 40 c-28 55 -57 188 -49 219 7 29 18 32 38
14 16 -15 55 -38 63 -38 4 0 3 6 -1 13 -4 6 2 3 14 -7 12 -11 25 -16 29 -13 3
4 12 2 20 -4 7 -6 13 -8 13 -4 0 4 6 3 13 -3 7 -6 42 -16 77 -21 38 -6 72 -18
83 -29 12 -13 26 -60 42 -140 34 -167 72 -260 158 -383 40 -57 81 -117 91
-134 48 -75 218 -220 319 -271 18 -9 34 -20 37 -23 3 -4 35 -30 72 -59 107
-84 121 -112 96 -194 -14 -47 -57 -77 -121 -82 -25 -2 -45 1 -44 5 1 4 -15 17
-36 28 -32 16 -39 17 -44 5 -4 -12 -8 -12 -18 3 -7 10 -11 21 -9 25 3 4 -3 5
-12 1 -12 -4 -15 -3 -10 5 4 7 2 10 -6 7 -8 -3 -21 8 -31 25 -10 16 -23 30
-29 30 -11 0 -8 -4 54 -86 34 -44 124 -214 113 -214 -3 0 -39 60 -81 133 -71
122 -88 143 -218 272 -78 77 -118 120 -91 96 28 -24 87 -80 133 -124 85 -82
105 -93 52 -29 -88 107 -286 384 -359 502 -101 162 -174 262 -259 352 -35 37
-64 70 -65 75 -1 4 -5 7 -10 5 -4 -1 -40 25 -80 59 -78 67 -183 143 -198 145
-5 1 -14 2 -20 3 -5 0 -8 5 -4 10 3 5 1 12 -5 16 -5 3 -10 -2 -10 -12 -1 -13
-15 -3 -50 35 -28 29 -50 58 -50 64 0 5 16 -10 36 -34 20 -23 39 -45 42 -48z
m-97 -37 c13 -16 12 -17 -3 -4 -17 13 -22 21 -14 21 2 0 10 -8 17 -17z m204
-333 c10 -11 16 -20 13 -20 -3 0 -13 9 -23 20 -10 11 -16 20 -13 20 3 0 13 -9
23 -20z m670 -590 c10 -11 16 -20 13 -20 -3 0 -13 9 -23 20 -10 11 -16 20 -13
20 3 0 13 -9 23 -20z"/>
<path d="M1655 6139 c-4 -6 -5 -12 -2 -15 2 -3 7 2 10 11 7 17 1 20 -8 4z"/>
<path d="M775 8473 c-12 -2 -32 -14 -46 -26 -14 -12 -19 -18 -13 -14 7 5 37
11 66 14 48 5 57 2 86 -21 17 -15 41 -45 53 -66 12 -22 28 -41 36 -44 17 -7
16 1 -10 54 -33 67 -114 116 -172 103z"/>
<path d="M890 8134 c-74 -41 -75 -42 -68 -50 3 -3 30 2 59 10 29 9 54 16 56
16 2 0 3 -10 4 -22 1 -13 5 -3 10 22 5 25 8 48 6 52 -1 4 -31 -9 -67 -28z"/>
<path d="M1000 8010 c0 -5 -7 -10 -15 -10 -21 0 -19 -13 5 -35 20 -18 20 -17
20 18 0 21 -2 37 -5 37 -3 0 -5 -4 -5 -10z"/>
<path d="M987 7909 c-6 -22 1 -49 12 -49 4 0 5 16 3 35 -5 40 -8 43 -15 14z"/>
<path d="M1031 7788 c-1 -21 4 -38 9 -38 12 0 12 27 0 55 -7 16 -9 13 -9 -17z"/>
<path d="M2786 7430 c-15 -5 -36 -16 -46 -25 -16 -14 -54 -26 -87 -28 -24 -1
-22 -27 3 -44 23 -14 30 -15 58 -4 47 20 94 25 111 11 17 -14 13 -39 -22 -123
-19 -46 -21 -62 -12 -73 19 -23 29 -16 29 21 0 19 5 35 10 35 6 0 10 -9 10
-19 0 -25 18 -37 26 -17 3 9 9 14 13 11 4 -2 13 19 20 48 16 65 31 107 40 107
4 0 17 9 29 21 24 22 21 39 -5 39 -9 0 -27 10 -39 21 -26 24 -93 33 -138 19z
m149 -69 c-3 -6 -14 -11 -23 -11 -15 1 -15 2 2 15 21 16 32 13 21 -4z"/>
<path d="M2962 7423 c-9 -8 -12 -12 -6 -9 7 3 15 -1 18 -10 5 -12 10 -14 20
-5 7 6 15 9 18 6 3 -3 13 4 23 15 17 19 17 19 -19 18 -20 -1 -44 -8 -54 -15z"/>
<path d="M2665 7073 c-80 -28 -116 -36 -180 -37 -44 -1 -86 -5 -92 -9 -23 -15
-14 -37 15 -38 30 0 125 -6 212 -14 61 -5 139 -35 161 -62 9 -11 10 -14 2 -9
-8 4 -13 2 -13 -8 0 -15 -37 -33 -47 -23 -3 3 -26 -1 -51 -9 -26 -7 -57 -14
-69 -14 -13 0 -23 -4 -23 -8 0 -4 -16 -23 -35 -42 -72 -70 -65 -105 26 -135
30 -10 50 -24 54 -36 4 -10 10 -19 15 -19 5 0 16 -12 24 -27 l14 -28 21 48
c12 27 21 52 21 56 0 5 25 47 55 96 30 48 58 99 61 114 3 14 14 47 25 73 10
26 20 68 22 95 l2 48 -37 -3 c-21 -2 -47 3 -60 12 -21 13 -31 12 -123 -21z"/>
</g>
</svg>
